<svg width="161" height="20" viewBox="0 0 161 20" fill="none" xmlns="http://www.w3.org/2000/svg">
<g clip-path="url(#clip0_391_1985)">
<path d="M113.79 18.335H0V18.565H113.79V18.335Z" fill="black"/>
<path d="M14.6601 10.5797L13.7451 10.0247C13.7176 10.0148 13.6875 10.0148 13.6601 10.0247C13.646 10.0288 13.6329 10.0359 13.6218 10.0453C13.6106 10.0548 13.6015 10.0665 13.5951 10.0797C13.2598 10.6439 12.8803 11.1806 12.4601 11.6847C11.8201 12.4697 10.3401 12.4997 9.90508 12.4997H6.40508V7.61473H8.26008C9.41508 7.61473 9.59508 8.16973 9.61508 8.27973V9.60473C9.61506 9.61895 9.61793 9.63302 9.62352 9.6461C9.62911 9.65917 9.63729 9.67098 9.64758 9.6808C9.65786 9.69062 9.67004 9.69824 9.68336 9.70322C9.69668 9.70819 9.71087 9.7104 9.72508 9.70973H10.7701C10.7979 9.70973 10.8246 9.69866 10.8443 9.67897C10.864 9.65928 10.8751 9.63257 10.8751 9.60473V4.10473C10.8741 4.07884 10.8641 4.05412 10.8467 4.03491C10.8293 4.0157 10.8057 4.00324 10.7801 3.99973H9.70508C9.6759 3.99973 9.64792 4.01132 9.6273 4.03194C9.60667 4.05257 9.59508 4.08055 9.59508 4.10973V5.32973C9.59508 6.11473 8.90508 6.24473 8.49008 6.24473H6.39508V1.74473H9.89508C10.6724 1.71646 11.4388 1.93354 12.0859 2.36519C12.7329 2.79684 13.2277 3.42118 13.5001 4.14973C13.5092 4.17653 13.5284 4.19877 13.5535 4.21181C13.5787 4.22485 13.6079 4.22769 13.6351 4.21973L14.5001 3.75473C14.5143 3.74844 14.5267 3.73877 14.5363 3.72657C14.5459 3.71437 14.5523 3.7 14.5551 3.68473C14.5613 3.67143 14.5646 3.65692 14.5646 3.64223C14.5646 3.62754 14.5613 3.61302 14.5551 3.59973L12.3751 0.269727C12.3653 0.254683 12.352 0.242262 12.3363 0.233547C12.3206 0.224832 12.303 0.220087 12.2851 0.219727L0.330078 0.244727C0.315858 0.24471 0.301783 0.247583 0.288707 0.253169C0.27563 0.258756 0.263825 0.266941 0.254006 0.277227C0.244188 0.287513 0.236561 0.299686 0.231588 0.313008C0.226615 0.32633 0.224401 0.340523 0.225078 0.354727V1.58473C0.225078 1.61257 0.23614 1.63928 0.255831 1.65897C0.275523 1.67866 0.30223 1.68973 0.330078 1.68973C1.52008 1.68973 1.99008 1.95473 2.18508 2.18973C2.26588 2.30939 2.30938 2.45034 2.31008 2.59473V10.9597C2.31008 11.9597 1.52008 12.5897 0.235078 12.5897H0.120078C0.104183 12.5887 0.0882703 12.5914 0.073544 12.5974C0.0588178 12.6035 0.0456638 12.6128 0.0350777 12.6247C0.0235735 12.6345 0.0144467 12.6468 0.00838427 12.6607C0.00232183 12.6746 -0.000518301 12.6896 7.76642e-05 12.7047V13.8447C0.00372463 13.8712 0.0169053 13.8955 0.0371526 13.913C0.0573999 13.9305 0.0833258 13.94 0.110078 13.9397H12.4301C12.448 13.9394 12.4656 13.9346 12.4813 13.9259C12.497 13.9172 12.5103 13.9048 12.5201 13.8897L14.6901 10.7347C14.7057 10.7121 14.7119 10.6842 14.7072 10.6571C14.7025 10.63 14.6874 10.6058 14.6651 10.5897" fill="#2196F3"/>
<path d="M29.0952 9.715C29.0729 9.69592 29.0445 9.6853 29.0152 9.685C28.9956 9.68414 28.9762 9.68828 28.9587 9.69703C28.9412 9.70578 28.9262 9.71885 28.9152 9.735C27.5002 12.295 25.3802 12.425 25.0002 12.425H21.7002V3.16C21.7002 1.93 22.4052 1.66 22.9952 1.66C23.128 1.65577 23.2609 1.66923 23.3902 1.7H23.4202C23.4415 1.69407 23.4606 1.68182 23.4749 1.66487C23.4891 1.64792 23.498 1.62705 23.5002 1.605V0.360002C23.5002 0.345782 23.4973 0.331707 23.4917 0.318631C23.4861 0.305554 23.478 0.293749 23.4677 0.28393C23.4574 0.274112 23.4452 0.266485 23.4319 0.261512C23.4186 0.25654 23.4044 0.254325 23.3902 0.255002H15.5002C15.4723 0.255002 15.4456 0.266064 15.4259 0.285756C15.4062 0.305447 15.3952 0.332154 15.3952 0.360002V1.655C15.3945 1.66921 15.3967 1.6834 15.4017 1.69672C15.4066 1.71004 15.4143 1.72222 15.4241 1.7325C15.4339 1.74279 15.4457 1.75097 15.4588 1.75656C15.4719 1.76215 15.4859 1.76502 15.5002 1.765H16.6402C16.7817 1.75245 16.9243 1.77251 17.0569 1.82365C17.1895 1.87479 17.3087 1.95564 17.4052 2.06C17.507 2.20352 17.5792 2.3658 17.6179 2.53746C17.6565 2.70911 17.6607 2.88672 17.6302 3.06V10.915C17.6302 12.37 16.6902 12.49 16.4052 12.49V12.27V12.5H15.4052C15.391 12.4993 15.3768 12.5015 15.3634 12.5065C15.3501 12.5115 15.338 12.5191 15.3277 12.5289C15.3174 12.5387 15.3092 12.5506 15.3036 12.5636C15.298 12.5767 15.2951 12.5908 15.2952 12.605V13.85C15.2952 13.8792 15.3068 13.9072 15.3274 13.9278C15.348 13.9484 15.376 13.96 15.4052 13.96H27.6202C27.6381 13.9596 27.6557 13.9549 27.6714 13.9462C27.6871 13.9375 27.7004 13.925 27.7102 13.91L29.8152 10.58C29.831 10.5611 29.8397 10.5372 29.8397 10.5125C29.8397 10.4878 29.831 10.4639 29.8152 10.445L29.0952 9.715Z" fill="#2196F3"/>
<path d="M74.0652 10.5797L73.1502 10.0247C73.1227 10.0148 73.0926 10.0148 73.0652 10.0247C73.0511 10.0288 73.038 10.0359 73.0268 10.0453C73.0156 10.0548 73.0065 10.0665 73.0002 10.0797C72.6649 10.6439 72.2854 11.1806 71.8652 11.6847C71.2252 12.4697 69.7452 12.5197 69.3102 12.5197H65.8102V7.61473H67.6652C68.8202 7.61473 69.0002 8.16973 69.0202 8.27973V9.60473C69.0201 9.61895 69.023 9.63302 69.0286 9.6461C69.0342 9.65917 69.0424 9.67098 69.0527 9.6808C69.0629 9.69062 69.0751 9.69824 69.0884 9.70322C69.1018 9.70819 69.1159 9.7104 69.1302 9.70973H70.1602C70.1744 9.7104 70.1886 9.70819 70.2019 9.70322C70.2152 9.69824 70.2274 9.69062 70.2377 9.6808C70.2479 9.67098 70.2561 9.65917 70.2617 9.6461C70.2673 9.63302 70.2702 9.61895 70.2702 9.60473V4.10473C70.2702 4.07555 70.2586 4.04757 70.2379 4.02694C70.2173 4.00632 70.1893 3.99473 70.1602 3.99473H69.0952C69.066 3.99473 69.038 4.00632 69.0174 4.02694C68.9967 4.04757 68.9852 4.07555 68.9852 4.10473V5.32473C68.9852 6.10973 68.2902 6.23973 67.8802 6.23973H65.7852V1.73973H69.2852C70.0653 1.71792 70.8325 1.94305 71.4771 2.38301C72.1218 2.82297 72.6111 3.45527 72.8752 4.18973C72.8867 4.22075 72.9101 4.24592 72.9402 4.25973C72.9693 4.26963 73.001 4.26963 73.0302 4.25973L73.8952 3.79973C73.9079 3.7934 73.9192 3.78457 73.9283 3.77377C73.9375 3.76296 73.9445 3.7504 73.9487 3.73685C73.9529 3.72329 73.9543 3.70903 73.9528 3.69492C73.9514 3.6808 73.9471 3.66713 73.9402 3.65473L71.7652 0.269727C71.7554 0.254683 71.7421 0.242262 71.7264 0.233547C71.7107 0.224832 71.6931 0.220087 71.6752 0.219727H59.7352C59.7209 0.21971 59.7069 0.222583 59.6938 0.228169C59.6807 0.233756 59.6689 0.241941 59.6591 0.252227C59.6493 0.262513 59.6416 0.274686 59.6367 0.288008C59.6317 0.30133 59.6295 0.315523 59.6302 0.329727V1.57473C59.6302 1.60257 59.6412 1.62928 59.6609 1.64897C59.6806 1.66866 59.7073 1.67973 59.7352 1.67973C60.9252 1.67973 61.4002 1.94473 61.5902 2.17973C61.6196 2.21429 61.6463 2.25106 61.6702 2.28973H61.8102L61.7152 2.56973V10.9647C61.7152 11.9647 60.9252 12.5947 59.6402 12.5947H59.5302C59.5168 12.5888 59.5023 12.5857 59.4877 12.5857C59.473 12.5857 59.4585 12.5888 59.4452 12.5947C59.4239 12.6161 59.4114 12.6446 59.4102 12.6747V13.8197C59.4101 13.8339 59.413 13.848 59.4186 13.8611C59.4242 13.8742 59.4324 13.886 59.4427 13.8958C59.4529 13.9056 59.4651 13.9132 59.4784 13.9182C59.4918 13.9232 59.506 13.9254 59.5202 13.9247H71.8402C71.8577 13.9254 71.8752 13.9216 71.8909 13.9137C71.9066 13.9058 71.9201 13.8942 71.9302 13.8797L74.1002 10.7247C74.1061 10.7113 74.1091 10.6969 74.1091 10.6822C74.1091 10.6676 74.1061 10.6531 74.1002 10.6397C74.0927 10.611 74.0749 10.5861 74.0502 10.5697" fill="#2196F3"/>
<path d="M127.38 9.71494C127.355 9.69351 127.323 9.68273 127.29 9.68495C127.273 9.687 127.257 9.69307 127.243 9.70264C127.229 9.71222 127.218 9.72501 127.21 9.73994C125.79 12.3049 123.675 12.4349 123.265 12.4349H119.96V3.15995C119.96 1.92994 120.665 1.65994 121.255 1.65994C121.388 1.65572 121.521 1.66917 121.65 1.69994H121.685C121.699 1.69996 121.713 1.69709 121.726 1.6915C121.74 1.68592 121.751 1.67773 121.761 1.66744C121.771 1.65716 121.779 1.64499 121.784 1.63166C121.789 1.61834 121.791 1.60415 121.79 1.58994V0.359945C121.79 0.346156 121.787 0.332502 121.782 0.319763C121.777 0.307024 121.769 0.295449 121.759 0.285699C121.75 0.275949 121.738 0.268214 121.725 0.262938C121.713 0.257661 121.699 0.254945 121.685 0.254945H113.775C113.761 0.254455 113.747 0.25687 113.734 0.262035C113.721 0.267201 113.71 0.275004 113.7 0.284945C113.681 0.305236 113.67 0.332045 113.67 0.359945V1.65494C113.669 1.66915 113.672 1.68334 113.677 1.69666C113.682 1.70999 113.689 1.72216 113.699 1.73245C113.709 1.74273 113.721 1.75092 113.734 1.7565C113.747 1.76209 113.761 1.76496 113.775 1.76494H114.915C115.057 1.75314 115.199 1.77355 115.331 1.82464C115.464 1.87573 115.583 1.95618 115.68 2.05994C115.782 2.20346 115.854 2.36575 115.893 2.5374C115.931 2.70905 115.936 2.88666 115.905 3.05994V10.9149C115.905 12.3699 114.965 12.4899 114.68 12.4899V12.2699V12.4999H113.68C113.652 12.4999 113.626 12.511 113.606 12.5307C113.586 12.5504 113.575 12.5771 113.575 12.6049V13.8499C113.574 13.8641 113.577 13.8783 113.582 13.8917C113.587 13.905 113.594 13.9172 113.604 13.9274C113.614 13.9377 113.626 13.9459 113.639 13.9515C113.652 13.9571 113.666 13.96 113.68 13.9599H125.9C125.919 13.96 125.937 13.9554 125.954 13.9467C125.97 13.938 125.985 13.9254 125.995 13.9099L128.095 10.5799C128.112 10.5615 128.121 10.5374 128.121 10.5124C128.121 10.4875 128.112 10.4634 128.095 10.4449L127.38 9.71494Z" fill="#2196F3"/>
<path d="M56.78 12.6949H55.43C54.93 12.6149 54.335 12.3499 54.335 11.8199V2.23487L54.365 2.18487C54.465 2.00987 54.865 1.59987 56.73 1.59987C56.7442 1.60054 56.7584 1.59833 56.7717 1.59335C56.785 1.58838 56.7972 1.58076 56.8075 1.57094C56.8178 1.56112 56.826 1.54931 56.8316 1.53624C56.8371 1.52316 56.84 1.50908 56.84 1.49487V0.344865C56.84 0.330645 56.8371 0.31657 56.8316 0.303494C56.826 0.290418 56.8178 0.278612 56.8075 0.268794C56.7972 0.258975 56.785 0.251348 56.7717 0.246376C56.7584 0.241403 56.7442 0.239188 56.73 0.239865H48.435C48.4208 0.239188 48.4066 0.241403 48.3933 0.246376C48.38 0.251348 48.3678 0.258975 48.3575 0.268794C48.3472 0.278612 48.339 0.290418 48.3334 0.303494C48.3278 0.31657 48.325 0.330645 48.325 0.344865V1.45987C48.3247 1.47551 48.3279 1.49102 48.3344 1.50527C48.3409 1.51951 48.3505 1.53213 48.3624 1.54219C48.3744 1.55225 48.3885 1.55951 48.4036 1.56344C48.4188 1.56736 48.4346 1.56785 48.45 1.56487C48.6159 1.54428 48.7829 1.53426 48.95 1.53487C50.085 1.53487 50.325 2.03487 50.325 2.41487V6.31487H44.825V2.41487C44.825 2.01487 45.065 1.53487 46.2 1.53487C46.3673 1.53382 46.5345 1.54552 46.7 1.56987C46.7292 1.56987 46.7571 1.55828 46.7778 1.53765C46.7984 1.51702 46.81 1.48904 46.81 1.45987V0.344865C46.81 0.330645 46.8071 0.31657 46.8015 0.303494C46.796 0.290418 46.7878 0.278612 46.7775 0.268794C46.7672 0.258975 46.755 0.251348 46.7417 0.246376C46.7284 0.241403 46.7142 0.239188 46.7 0.239865H38.4C38.3721 0.239865 38.3454 0.250928 38.3257 0.270619C38.3061 0.29031 38.295 0.317017 38.295 0.344865V1.49987C38.2943 1.51407 38.2965 1.52826 38.3015 1.54158C38.3065 1.55491 38.3141 1.56708 38.3239 1.57737C38.3337 1.58765 38.3455 1.59584 38.3586 1.60142C38.3717 1.60701 38.3858 1.60988 38.4 1.60987C40.24 1.60987 40.665 2.01487 40.765 2.19487L40.795 2.24487V11.8199C40.795 12.3449 40.23 12.6049 39.7 12.6899H38.35C38.3358 12.6898 38.3217 12.6927 38.3086 12.6983C38.2955 12.7039 38.2837 12.7121 38.2739 12.7224C38.2641 12.7327 38.2565 12.7448 38.2515 12.7581C38.2465 12.7715 38.2443 12.7857 38.245 12.7999V13.8349C38.245 13.8627 38.2561 13.8894 38.2757 13.9091C38.2954 13.9288 38.3221 13.9399 38.35 13.9399H46.605C46.6328 13.9399 46.6595 13.9288 46.6792 13.9091C46.6989 13.8894 46.71 13.8627 46.71 13.8349V12.8349C46.71 12.8065 46.6991 12.7793 46.6796 12.7588C46.66 12.7383 46.6333 12.7262 46.605 12.7249C45.535 12.7249 45.105 12.4649 44.935 12.2249C44.8847 12.1625 44.8485 12.09 44.8286 12.0124C44.8088 11.9347 44.8059 11.8537 44.82 11.7749V7.70486H50.32V11.7649C50.3431 11.8509 50.3452 11.9413 50.3261 12.0283C50.3069 12.1153 50.2671 12.1965 50.21 12.2649C50.04 12.4799 49.61 12.7649 48.54 12.7649C48.5117 12.7662 48.485 12.7783 48.4654 12.7988C48.4459 12.8193 48.435 12.8465 48.435 12.8749V13.8749C48.435 13.9027 48.4461 13.9294 48.4657 13.9491C48.4854 13.9688 48.5121 13.9799 48.54 13.9799H56.795C56.8092 13.9805 56.8234 13.9783 56.8367 13.9734C56.85 13.9684 56.8622 13.9608 56.8725 13.9509C56.8828 13.9411 56.891 13.9293 56.8965 13.9162C56.9021 13.9032 56.905 13.8891 56.905 13.8749V12.8049C56.905 12.7757 56.8934 12.7477 56.8728 12.7271C56.8521 12.7065 56.8242 12.6949 56.795 12.6949" fill="#2196F3"/>
<path d="M92.62 12.775H91.69C91.4758 12.7454 91.2746 12.6552 91.11 12.515L91.07 12.475C90.835 12.18 88.765 9.51002 87.98 8.61502C87.7246 8.33334 87.4195 8.10113 87.08 7.93002L86.53 7.64002L87.14 7.52502C88.35 7.30002 90.37 6.52502 90.37 4.07002C90.37 0.66002 86.37 0.27002 84.645 0.27002H74.825C74.7961 0.269911 74.7683 0.280645 74.747 0.300094C74.7257 0.319542 74.7125 0.346286 74.71 0.37502V1.55502C74.71 1.58419 74.7216 1.61217 74.7422 1.6328C74.7628 1.65343 74.7908 1.66502 74.82 1.66502C76.01 1.66502 76.49 1.93002 76.68 2.16502C76.7095 2.20131 76.7362 2.23975 76.76 2.28002H76.9L76.805 2.56002V10.95C76.805 11.975 76.015 12.585 74.72 12.585H74.61C74.5791 12.585 74.5491 12.5956 74.525 12.615C74.5037 12.6363 74.4912 12.6649 74.49 12.695V13.84C74.49 13.8542 74.4928 13.8683 74.4984 13.8814C74.504 13.8945 74.5122 13.9063 74.5225 13.9161C74.5328 13.9259 74.545 13.9335 74.5583 13.9385C74.5716 13.9435 74.5858 13.9457 74.6 13.945H82.6C82.6138 13.945 82.6274 13.9423 82.6402 13.937C82.6529 13.9318 82.6645 13.924 82.6742 13.9143C82.684 13.9045 82.6917 13.8929 82.697 13.8802C82.7023 13.8675 82.705 13.8538 82.705 13.84V13C82.7055 12.9861 82.7031 12.9723 82.6979 12.9594C82.6927 12.9464 82.6849 12.9347 82.675 12.925C82.6655 12.9144 82.654 12.9058 82.6411 12.8998C82.6282 12.8938 82.6142 12.8905 82.6 12.89C82.06 12.89 81.345 12.815 81.02 12.43C80.93 12.3279 80.8741 12.2004 80.86 12.065V11.955V11.93V7.69502H81.7L81.765 7.77002C82.23 8.31502 83.87 10.225 85.49 11.98C87.11 13.735 88.115 13.92 88.38 13.92H92.61C92.6392 13.92 92.6671 13.9084 92.6878 13.8878C92.7084 13.8672 92.72 13.8392 92.72 13.81V12.885C92.7187 12.8567 92.7065 12.83 92.6861 12.8105C92.6656 12.7909 92.6383 12.78 92.61 12.78M85.32 5.78002C84.9752 5.98548 84.5814 6.09429 84.18 6.09502H80.83V1.65002H84C84.2982 1.65311 84.5926 1.71765 84.8648 1.83961C85.137 1.96157 85.3811 2.13833 85.5819 2.35884C85.7827 2.57936 85.9359 2.83891 86.0319 3.12129C86.128 3.40366 86.1647 3.7028 86.14 4.00002C86.171 4.34241 86.1132 4.68701 85.9722 5.00056C85.8312 5.3141 85.6117 5.586 85.335 5.79002L85.32 5.78002Z" fill="#2196F3"/>
<path d="M112.145 12.7747C110.58 12.7747 110.145 11.9347 110.095 11.8397L104.575 0.299748C104.565 0.282069 104.55 0.267282 104.533 0.256783C104.515 0.246284 104.496 0.240421 104.475 0.239748H100.545C100.527 0.239652 100.509 0.244202 100.494 0.25296C100.478 0.261717 100.465 0.274387 100.455 0.289748C100.445 0.304548 100.44 0.321948 100.44 0.339748C100.44 0.357547 100.445 0.374947 100.455 0.389748L100.955 1.55975L100.915 1.64475C100.455 2.64475 96.3851 11.5547 96.0651 12.1447C95.9615 12.3045 95.8249 12.4403 95.6645 12.5429C95.5041 12.6455 95.3236 12.7126 95.1351 12.7397H94.1351C94.106 12.7397 94.078 12.7513 94.0574 12.772C94.0367 12.7926 94.0251 12.8206 94.0251 12.8497V13.8047C94.0251 13.819 94.028 13.833 94.0336 13.8461C94.0392 13.8592 94.0474 13.871 94.0576 13.8808C94.0679 13.8906 94.0801 13.8983 94.0934 13.9032C94.1068 13.9082 94.1209 13.9104 94.1351 13.9097H99.5201C99.5339 13.9097 99.5476 13.907 99.5603 13.9018C99.5731 13.8965 99.5846 13.8887 99.5944 13.879C99.6041 13.8692 99.6119 13.8577 99.6171 13.8449C99.6224 13.8322 99.6251 13.8185 99.6251 13.8047V12.9647C99.6252 12.9364 99.6143 12.9092 99.5947 12.8887C99.5752 12.8682 99.5484 12.856 99.5201 12.8547H98.3651C98.2781 12.8643 98.1901 12.853 98.1083 12.8217C98.0266 12.7904 97.9535 12.74 97.8951 12.6747C97.7906 12.4895 97.7602 12.2715 97.8101 12.0647V12.0147L99.0001 9.68975H104.6L104.66 9.79975C104.905 10.2247 105.5 11.2997 105.88 12.0147C105.934 12.0963 105.969 12.1896 105.98 12.2869C105.991 12.3843 105.979 12.4829 105.945 12.5747C105.877 12.6618 105.793 12.7345 105.697 12.7886C105.601 12.8427 105.495 12.8771 105.385 12.8897H104C103.986 12.8897 103.972 12.8926 103.959 12.8982C103.946 12.9038 103.934 12.912 103.924 12.9222C103.914 12.9325 103.907 12.9447 103.902 12.958C103.897 12.9714 103.894 12.9855 103.895 12.9997V13.8347C103.895 13.8626 103.906 13.8893 103.926 13.909C103.946 13.9287 103.972 13.9397 104 13.9397H112.15C112.164 13.9404 112.179 13.9382 112.192 13.9332C112.205 13.9283 112.217 13.9206 112.228 13.9108C112.238 13.901 112.246 13.8892 112.252 13.8761C112.257 13.863 112.26 13.849 112.26 13.8347V12.8847C112.259 12.8564 112.247 12.8297 112.226 12.8102C112.206 12.7906 112.178 12.7797 112.15 12.7797M99.5651 8.17975L101.64 3.67975L103.96 8.17975H99.5651Z" fill="#2196F3"/>
<path d="M138.935 0.255H128.5C128.486 0.255448 128.472 0.258782 128.459 0.264799C128.446 0.270815 128.435 0.279389 128.425 0.29C128.415 0.299728 128.407 0.311422 128.402 0.324336C128.397 0.33725 128.395 0.3511 128.395 0.365V1.5C128.394 1.5142 128.397 1.5284 128.402 1.54172C128.407 1.55504 128.414 1.56721 128.424 1.5775C128.434 1.58779 128.446 1.59597 128.459 1.60156C128.472 1.60714 128.486 1.61002 128.5 1.61H130C131.075 1.61 131.13 2.395 131.13 2.475V11.575C131.13 12.36 130.38 12.805 129.03 12.805C128.91 12.8139 128.79 12.8139 128.67 12.805C128.645 12.805 128.62 12.8138 128.6 12.83C128.589 12.841 128.58 12.8542 128.574 12.8689C128.568 12.8835 128.565 12.8992 128.565 12.915V13.845C128.565 13.8592 128.568 13.8733 128.574 13.8864C128.579 13.8994 128.587 13.9113 128.598 13.9211C128.608 13.9309 128.62 13.9385 128.633 13.9435C128.647 13.9485 128.661 13.9507 128.675 13.95H139.12C140.19 13.95 144.515 12.735 144.515 7.115C144.56 1.585 139 0.27 138.945 0.25M140.06 11.31C140.035 12.31 138.905 12.68 137.86 12.68H135.195V1.565H135.94C136.555 1.565 137.06 1.565 137.385 1.595C139.885 1.8 140.055 3.7 140.06 3.775C140.065 4.03 140.115 9.78 140.06 11.31Z" fill="#2196F3"/>
<path d="M160.09 7.04987C160.09 4.17487 158.93 2.47487 157.59 1.46987C156.41 0.570939 154.977 0.0663748 153.495 0.0277821C152.012 -0.0108106 150.555 0.418528 149.33 1.25487C147.83 2.25487 146.51 3.97487 146.51 7.05987C146.51 10.2849 147.96 12.0599 149.51 13.0599C150.729 13.8962 152.189 14.3073 153.665 14.2295C155.142 14.1518 156.551 13.5896 157.675 12.6299C158.99 11.5749 160.075 9.87987 160.08 7.08987M155.885 10.9049C155.84 11.5149 155.495 12.9049 153.255 12.9049C151.255 12.9049 150.755 11.6399 150.66 10.9049V3.49987C150.705 2.88987 151.05 1.49987 153.29 1.49987C155.29 1.49987 155.79 2.76487 155.885 3.49987V10.9049Z" fill="#2196F3"/>
<path d="M158.085 18.6949L158.48 17.6949L158.88 18.6949H158.085ZM156.905 19.9499H157.575L157.84 19.2749H159.105L159.37 19.9499H160.06L158.775 16.9499H158.17L156.905 19.9499ZM155.035 19.9499H155.695V16.9499H155.035V19.9499ZM152.115 17.5499C152.228 17.5438 152.34 17.5601 152.447 17.5979C152.553 17.6356 152.651 17.6941 152.735 17.7699C152.818 17.8456 152.886 17.9372 152.934 18.0393C152.982 18.1415 153.01 18.2521 153.015 18.3649V18.4499C153.026 18.6759 152.947 18.897 152.795 19.0647C152.643 19.2325 152.431 19.3332 152.205 19.3449H151.605V17.5499H152.115ZM150.945 19.9499H152.115C152.511 19.9745 152.901 19.841 153.199 19.5785C153.497 19.3161 153.679 18.9462 153.705 18.5499V18.4499C153.705 18.2451 153.664 18.0424 153.583 17.8543C153.502 17.6661 153.383 17.4966 153.234 17.3561C153.085 17.2155 152.909 17.107 152.717 17.0371C152.524 16.9673 152.319 16.9376 152.115 16.9499H150.945V19.9499ZM147.79 18.4099V17.5499H148.445C148.77 17.5499 148.975 17.6949 148.975 17.9749C148.975 18.2399 148.79 18.3999 148.475 18.3999L147.79 18.4099ZM147.13 19.9499H147.79V18.9999H148.32L148.96 19.9599H149.73L149 18.8799C149.193 18.8158 149.361 18.6902 149.476 18.5224C149.592 18.3545 149.649 18.1534 149.64 17.9499C149.645 17.8236 149.624 17.6977 149.578 17.5799C149.533 17.4621 149.464 17.3549 149.375 17.2649C149.258 17.1582 149.12 17.0763 148.971 17.0239C148.822 16.9715 148.663 16.9497 148.505 16.9599H147.135L147.13 19.9499ZM144.24 19.3899C144.003 19.3899 143.775 19.2966 143.605 19.1301C143.436 18.9636 143.339 18.7373 143.335 18.4999V18.4499C143.328 18.3308 143.345 18.2116 143.385 18.0992C143.425 17.9868 143.486 17.8834 143.566 17.795C143.646 17.7066 143.743 17.635 143.851 17.5844C143.959 17.5337 144.076 17.505 144.195 17.4999H144.235C144.476 17.5025 144.706 17.6001 144.876 17.7714C145.045 17.9427 145.14 18.1739 145.14 18.4149V18.4449C145.145 18.5624 145.126 18.6797 145.085 18.7901C145.045 18.9005 144.983 19.0018 144.903 19.0882C144.823 19.1745 144.727 19.2443 144.62 19.2935C144.513 19.3427 144.398 19.3704 144.28 19.3749H144.24V19.3899ZM144.24 19.9999C144.65 20.012 145.049 19.8609 145.348 19.5797C145.647 19.2985 145.822 18.9101 145.835 18.4999V18.4499C145.835 18.0282 145.667 17.6237 145.369 17.3256C145.071 17.0274 144.667 16.8599 144.245 16.8599C143.823 16.8599 143.419 17.0274 143.121 17.3256C142.822 17.6237 142.655 18.0282 142.655 18.4499C142.65 18.854 142.804 19.2437 143.085 19.5341C143.366 19.8246 143.751 19.992 144.155 19.9999H144.22H144.24ZM140.405 19.9999C140.633 20.0124 140.862 19.9741 141.074 19.8876C141.286 19.8012 141.476 19.6687 141.63 19.4999L141.21 19.0749C141.109 19.1833 140.986 19.2701 140.851 19.3303C140.715 19.3904 140.568 19.4226 140.42 19.4249C140.302 19.4223 140.185 19.3962 140.077 19.3481C139.969 19.3001 139.872 19.2309 139.791 19.1448C139.71 19.0587 139.647 18.9573 139.606 18.8466C139.564 18.7359 139.545 18.618 139.55 18.4999C139.552 18.49 139.552 18.4797 139.55 18.4699C139.538 18.2346 139.619 18.004 139.777 17.8287C139.934 17.6535 140.155 17.5478 140.39 17.5349C140.68 17.5435 140.954 17.6656 141.155 17.8749L141.58 17.3749C141.362 17.1608 141.088 17.0129 140.79 16.9482C140.492 16.8836 140.181 16.9048 139.894 17.0095C139.607 17.1141 139.356 17.298 139.169 17.5396C138.983 17.7813 138.869 18.0709 138.84 18.3749V18.4399C138.832 18.6414 138.865 18.8425 138.936 19.0312C139.007 19.2198 139.116 19.3921 139.256 19.5377C139.395 19.6834 139.563 19.7994 139.748 19.8788C139.934 19.9582 140.133 19.9994 140.335 19.9999H140.405ZM134.905 19.9449H135.555V18.0449L137.005 19.9449H137.565V16.9449H136.915V18.7849L135.5 16.9499H134.895L134.905 19.9449ZM132 19.3899C131.765 19.3848 131.541 19.2896 131.374 19.1239C131.208 18.9582 131.111 18.7348 131.105 18.4999V18.4699C131.095 18.3492 131.11 18.2279 131.149 18.1131C131.187 17.9984 131.248 17.8926 131.329 17.802C131.409 17.7115 131.507 17.638 131.616 17.5861C131.725 17.5342 131.844 17.5049 131.965 17.4999H132C132.24 17.5012 132.471 17.5976 132.64 17.7682C132.81 17.9387 132.905 18.1694 132.905 18.4099V18.4399C132.911 18.5576 132.894 18.6753 132.854 18.7863C132.814 18.8972 132.752 18.9991 132.673 19.0861C132.593 19.1731 132.497 19.2434 132.39 19.293C132.283 19.3425 132.168 19.3704 132.05 19.3749H132V19.3899ZM132 19.9999C132.41 20.012 132.809 19.8609 133.108 19.5797C133.407 19.2985 133.582 18.9101 133.595 18.4999V18.4499C133.595 18.0282 133.427 17.6237 133.129 17.3256C132.831 17.0274 132.427 16.8599 132.005 16.8599C131.583 16.8599 131.179 17.0274 130.881 17.3256C130.582 17.6237 130.415 18.0282 130.415 18.4499C130.41 18.8544 130.564 19.2448 130.845 19.536C131.126 19.8272 131.51 19.9957 131.915 20.0049H132V19.9999ZM128.165 19.9999C128.396 20.0127 128.626 19.972 128.839 19.8809C129.051 19.7898 129.24 19.6509 129.39 19.4749L128.97 19.0499C128.87 19.1607 128.749 19.2491 128.612 19.3094C128.476 19.3698 128.329 19.4006 128.18 19.3999C127.948 19.392 127.728 19.2933 127.568 19.1249C127.408 18.9565 127.321 18.7321 127.325 18.4999V18.4649C127.319 18.3486 127.336 18.2323 127.375 18.1226C127.414 18.0129 127.474 17.912 127.552 17.8256C127.63 17.7392 127.724 17.669 127.83 17.6192C127.935 17.5693 128.049 17.5406 128.165 17.5349H128.19C128.48 17.5435 128.754 17.6656 128.955 17.8749L129.38 17.3749C129.226 17.2193 129.041 17.0979 128.836 17.0187C128.632 16.9394 128.414 16.9041 128.195 16.9149C127.993 16.9068 127.791 16.9396 127.603 17.0114C127.414 17.0831 127.241 17.1923 127.095 17.3324C126.95 17.4725 126.834 17.6406 126.755 17.8266C126.676 18.0126 126.635 18.2127 126.635 18.4149V18.4849C126.63 18.6848 126.666 18.8836 126.739 19.0696C126.812 19.2557 126.922 19.4252 127.062 19.5682C127.201 19.7112 127.368 19.8249 127.553 19.9024C127.737 19.98 127.935 20.0199 128.135 20.0199H128.185L128.165 19.9999ZM120.275 19.9499H122.56V19.3599H120.93V18.7299H122.345V18.1449H120.93V17.5399H122.535V16.9499H120.275V19.9499ZM117.385 17.5499C117.498 17.5438 117.61 17.5601 117.717 17.5979C117.823 17.6356 117.921 17.6941 118.005 17.7699C118.088 17.8456 118.156 17.9372 118.204 18.0393C118.252 18.1415 118.28 18.2521 118.285 18.3649V18.4549C118.294 18.6757 118.217 18.8913 118.071 19.057C117.924 19.2227 117.72 19.3258 117.5 19.3449H116.905V17.5499H117.385ZM116.22 19.9499H117.385C117.584 19.9655 117.784 19.9412 117.974 19.8785C118.163 19.8157 118.338 19.7157 118.489 19.5844C118.639 19.4531 118.762 19.293 118.85 19.1137C118.938 18.9343 118.989 18.7392 119 18.5399C119.002 18.5082 119.002 18.4765 119 18.4449C119 18.2396 118.959 18.0365 118.877 17.848C118.796 17.6595 118.677 17.4898 118.528 17.3491C118.378 17.2085 118.201 17.1001 118.008 17.0306C117.815 16.961 117.61 16.9319 117.405 16.9449H116.24L116.22 19.9499Z" fill="black"/>
</g>
<defs>
<clipPath id="clip0_391_1985">
<rect width="160.09" height="20" fill="white"/>
</clipPath>
</defs>
</svg>
